<?xml version="1.0" encoding="UTF-8" standalone="no"?>
<!-- Created with Serif DrawPlus 11, 0, 3, 23 (Feb 25, 14:12:55) (http://www.serif.com) -->
<svg version="1.1" xmlns="http://www.w3.org/2000/svg" xmlns:xlink="http://www.w3.org/1999/xlink" xmlns:inkscape="http://www.inkscape.org/namespaces/inkscape" width="1036" height="805">
	<g id="Layer_1" inkscape:label="Layer 1" inkscape:groupmode="layer">
		<path id="dp_path002" fill="#ffc805" fill-rule="evenodd" d="M 707.641,803.532 L 770.803,667.421 L 739.221,667.421 L 739.221,-1.85867 L 676.063,-1.85867 L 676.063,667.421 L 644.481,667.421 Z "/>
		<path id="dp_path003" fill="#161ef9" fill-rule="evenodd" d="M 649.279,510.669 L 514.031,576.411 L 514.031,543.539 L 11.3133,543.539 L 11.3133,477.801 L 514.031,477.801 L 514.031,444.929 Z "/>
		<path id="dp_path004" fill="none" fill-rule="evenodd" stroke="black" stroke-width="1.73333" d="M 218.929,491.171 C 294.372,360.873 485.393,276.747 668.041,289.493"/>
		<path id="dp_path005" fill="none" fill-rule="evenodd" stroke="black" stroke-width="1.73333" stroke-dasharray="14.56,4.16" d="M 372.38,499.94 C 469.625,477.981 605.896,406.467 666.033,312.04"/>
		<path id="dp_path006" fill="none" fill-rule="evenodd" stroke="black" stroke-width="1.73333" d="M 366.899,491.171 C 447.563,436.083 610.895,434.36 669.139,484.848"/>
		<path id="dp_path007" fill="none" fill-rule="evenodd" stroke="black" stroke-width="1.73333" d="M 502.812,506.516 C 607.811,517.66 661.535,578.948 688.717,676.741"/>
		<path id="dp_path008" fill="none" fill-rule="evenodd" stroke="black" stroke-width="1.73333" stroke-dasharray="14.56,4.16" d="M 501.671,516.409 C 543.708,551.956 628.655,552.46 669.005,499.585"/>
		<path id="dp_path009" fill="black" fill-rule="evenodd" d="M 391.393,311.26 L 399.82,302.809 L 391.437,294.427 L 392.852,293.1 L 401.189,301.437 L 409.593,293.013 L 410.965,294.389 L 402.561,302.809 L 411.012,311.26 L 409.643,312.629 L 401.196,304.183 L 392.803,312.589 Z "/>
		<path id="dp_path010" fill="black" fill-rule="evenodd" d="M 596.825,441.571 L 605.253,433.12 L 596.869,424.736 L 598.285,423.409 L 606.623,431.748 L 615.027,423.324 L 616.399,424.7 L 607.995,433.12 L 616.445,441.571 L 615.076,442.94 L 606.628,434.493 L 598.236,442.9 Z "/>
		<path id="dp_path011" fill="black" fill-rule="evenodd" d="M 555.253,578.425 L 555.253,566.549 L 543.377,566.549 L 543.377,564.597 L 555.253,564.597 L 555.253,552.761 L 557.207,552.761 L 557.207,564.597 L 569.124,564.597 L 569.124,566.549 L 557.207,566.549 L 557.207,578.425 Z "/>
		<path id="dp_path012" fill="black" fill-rule="evenodd" d="M 613.005,609.876 L 621.433,601.425 L 613.049,593.041 L 614.465,591.716 L 622.803,600.053 L 631.207,591.629 L 632.579,593.005 L 624.175,601.425 L 632.625,609.876 L 631.256,611.245 L 622.808,602.799 L 614.416,611.205 Z "/>
		<path id="dp_path013" fill="black" fill-rule="evenodd" stroke="none" stroke-width="1.73333" d="M 434.259,324.124 L 417.152,339.937 L 410.965,323.885 Z "/>
		<path id="dp_path014" fill="black" fill-rule="evenodd" stroke="none" stroke-width="1.73333" d="M 567.152,411.279 L 577.972,390.648 L 589.181,403.703 Z "/>
		<path id="dp_path015" fill="black" fill-rule="evenodd" stroke="none" stroke-width="1.73333" d="M 600.057,453.837 L 577.268,458.669 L 580.168,441.711 Z "/>
		<path id="dp_path016" fill="black" fill-rule="evenodd" stroke="none" stroke-width="1.73333" d="M 653.259,593.9 L 632.627,583.081 L 645.679,571.871 Z "/>
		<path id="dp_path017" fill="black" fill-rule="evenodd" stroke="none" stroke-width="1.73333" d="M 543.377,537.12 L 566.404,533.58 L 562.553,550.349 Z "/>
		<path id="dp_path018" fill="black" fill-rule="evenodd" d="M 562.005,393.388 L 562.005,381.512 L 550.129,381.512 L 550.129,379.56 L 562.005,379.56 L 562.005,367.724 L 563.959,367.724 L 563.959,379.56 L 575.876,379.56 L 575.876,381.512 L 563.959,381.512 L 563.959,393.388 Z "/>
		<path id="dp_path019" fill="none" fill-rule="evenodd" stroke="black" stroke-width="1.73333" stroke-dasharray="14.56,4.16" d="M 238.659,499.94 C 386.025,456.104 578.007,312.189 669.139,123.689"/>
		<path id="dp_path020" fill="none" fill-rule="evenodd" stroke="black" stroke-width="1.73333" d="M 74.248,491.173 C 154.065,296.253 434.9,107.46 667.585,106.665 C 667.585,106.665 667.585,106.665 667.585,106.665"/>
		<path id="dp_path021" fill="black" fill-rule="evenodd" d="M 322.511,194.124 L 330.937,185.673 L 322.555,177.291 L 323.969,175.964 L 332.307,184.301 L 340.711,175.879 L 342.083,177.255 L 333.679,185.673 L 342.129,194.124 L 340.76,195.495 L 332.313,187.048 L 323.92,195.455 Z "/>
		<path id="dp_path022" fill="black" fill-rule="evenodd" stroke="none" stroke-width="1.73333" d="M 450.296,385.915 L 461.136,365.295 L 472.332,378.357 Z "/>
		<path id="dp_path023" fill="black" fill-rule="evenodd" stroke="none" stroke-width="1.73333" d="M 355.465,200.352 L 340.444,218.157 L 332.32,202.992 Z "/>
		<path id="dp_path024" fill="black" fill-rule="evenodd" d="M 442.719,373.939 L 442.719,362.063 L 430.843,362.063 L 430.843,360.111 L 442.719,360.111 L 442.719,348.275 L 444.671,348.275 L 444.671,360.111 L 456.589,360.111 L 456.589,362.063 L 444.671,362.063 L 444.671,373.939 Z "/>
		<path id="dp_path051" fill="black" fill-rule="evenodd" d="M 810.843,511.085 L 810.843,499.209 L 798.967,499.209 L 798.967,497.256 L 810.843,497.256 L 810.843,485.42 L 812.796,485.42 L 812.796,497.256 L 824.713,497.256 L 824.713,499.209 L 812.796,499.209 L 812.796,511.085 Z "/>
		<path id="dp_path052" fill="black" fill-rule="evenodd" d="M 901.603,508.655 L 911.992,498.237 L 901.657,487.903 L 903.403,486.268 L 913.681,496.547 L 924.041,486.161 L 925.731,487.857 L 915.371,498.237 L 925.791,508.655 L 924.101,510.345 L 913.687,499.931 L 903.341,510.296 Z "/>
		<text id="dp_text001" transform="matrix(1,0,0,1,934.874,512.097)" xml:space="preserve" fill="black" font-family="Arial" font-size="53" font-weight="400" font-style="italic" x="0" y="0">B  </text>
		<text id="dp_text002" transform="matrix(1,0,0,1,968.341,528.397)" xml:space="preserve" fill="black" font-family="Arial" font-size="36" font-weight="400" x="0" y="0">3  </text>
		<text id="dp_text003" transform="matrix(1,0,0,1,988.567,528.397)" xml:space="preserve" fill="black" font-family="Arial" font-size="36" font-weight="400" x="0" y="0">j  </text>
		<text id="dp_text004" transform="matrix(1,0,0,1,996.597,528.397)" xml:space="preserve" fill="black" font-family="Arial" font-size="36" font-weight="400" x="0" y="0">   </text>
		<text id="dp_text005" transform="matrix(1,0,0,1,829.797,512.097)" xml:space="preserve" fill="black" font-family="Arial" font-size="53" font-weight="400" font-style="italic" x="0" y="0">A </text>
		<text id="dp_text006" transform="matrix(1,0,0,1,863.423,512.097)" xml:space="preserve" fill="black" font-family="Arial" font-size="53" font-weight="400" font-style="italic" x="0" y="0">   </text>
		<text id="dp_text007" transform="matrix(1,0,0,1,864.264,528.397)" xml:space="preserve" fill="black" font-family="Arial" font-size="36" font-weight="400" x="0" y="0">i  </text>
		<text id="dp_text008" transform="matrix(1,0,0,1,872.296,528.397)" xml:space="preserve" fill="black" font-family="Arial" font-size="36" font-weight="400" x="0" y="0">3  </text>
		<text id="dp_text009" transform="matrix(1,0,0,1,892.522,528.397)" xml:space="preserve" fill="black" font-family="Arial" font-size="36" font-weight="400" x="0" y="0">   </text>
		<text id="dp_text010" transform="matrix(1,0,0,1,187.976,522.462)" xml:space="preserve" fill="white" font-family="Arial" font-size="53" font-weight="400" font-style="italic" x="0" y="0">A  </text>
		<text id="dp_text011" transform="matrix(1,0,0,1,225.402,538.762)" xml:space="preserve" fill="white" font-family="Arial" font-size="36" font-weight="400" x="0" y="0">i  </text>
		<text id="dp_text012" transform="matrix(1,0,0,1,233.435,538.762)" xml:space="preserve" fill="white" font-family="Arial" font-size="36" font-weight="400" x="0" y="0">2  </text>
		<text id="dp_text013" transform="matrix(1,0,0,1,253.659,538.762)" xml:space="preserve" fill="white" font-family="Arial" font-size="36" font-weight="400" x="0" y="0">   </text>
		<text id="dp_text014" transform="matrix(1,0,0,1,48.9878,522.462)" xml:space="preserve" fill="white" font-family="Arial" font-size="53" font-weight="400" font-style="italic" x="0" y="0">A </text>
		<text id="dp_text015" transform="matrix(1,0,0,1,82.6144,522.462)" xml:space="preserve" fill="white" font-family="Arial" font-size="53" font-weight="400" font-style="italic" x="0" y="0">   </text>
		<text id="dp_text016" transform="matrix(1,0,0,1,86.4147,538.762)" xml:space="preserve" fill="white" font-family="Arial" font-size="36" font-weight="400" x="0" y="0">i  </text>
		<text id="dp_text017" transform="matrix(1,0,0,1,94.4467,538.762)" xml:space="preserve" fill="white" font-family="Arial" font-size="36" font-weight="400" x="0" y="0">1  </text>
		<text id="dp_text018" transform="matrix(1,0,0,1,114.672,538.762)" xml:space="preserve" fill="white" font-family="Arial" font-size="36" font-weight="400" x="0" y="0">   </text>
		<text id="dp_text019" transform="matrix(1,0,0,1,320.112,522.462)" xml:space="preserve" fill="white" font-family="Arial" font-size="53" font-weight="400" font-style="italic" x="0" y="0">A  </text>
		<text id="dp_text020" transform="matrix(1,0,0,1,356.169,538.762)" xml:space="preserve" fill="white" font-family="Arial" font-size="36" font-weight="400" x="0" y="0">i  </text>
		<text id="dp_text021" transform="matrix(1,0,0,1,364.201,538.762)" xml:space="preserve" fill="white" font-family="Arial" font-size="36" font-weight="400" x="0" y="0">3  </text>
		<text id="dp_text022" transform="matrix(1,0,0,1,384.428,538.762)" xml:space="preserve" fill="white" font-family="Arial" font-size="36" font-weight="400" x="0" y="0">   </text>
		<text id="dp_text023" transform="matrix(1,0,0,1,446.222,514.79)" xml:space="preserve" fill="white" font-family="Arial" font-size="53" font-weight="400" x="0" y="0">...  </text>
		<text id="dp_text024" transform="matrix(1,0,0,1,674.671,124.533)" xml:space="preserve" fill="black" font-family="Arial" font-size="53" font-weight="400" font-style="italic" x="0" y="0">B </text>
		<text id="dp_text025" transform="matrix(1,0,0,1,710.293,124.533)" xml:space="preserve" fill="black" font-family="Arial" font-size="53" font-weight="400" font-style="italic" x="0" y="0">   </text>
		<text id="dp_text026" transform="matrix(1,0,0,1,706.618,140.833)" xml:space="preserve" fill="black" font-family="Arial" font-size="36" font-weight="400" x="0" y="0">1  </text>
		<text id="dp_text027" transform="matrix(1,0,0,1,726.842,140.833)" xml:space="preserve" fill="black" font-family="Arial" font-size="36" font-weight="400" x="0" y="0">j  </text>
		<text id="dp_text028" transform="matrix(1,0,0,1,734.874,140.833)" xml:space="preserve" fill="black" font-family="Arial" font-size="36" font-weight="400" x="0" y="0">   </text>
		<text id="dp_text029" transform="matrix(1,0,0,1,676.041,312.329)" xml:space="preserve" fill="black" font-family="Arial" font-size="53" font-weight="400" font-style="italic" x="0" y="0">B  </text>
		<text id="dp_text030" transform="matrix(1,0,0,1,706.618,328.629)" xml:space="preserve" fill="black" font-family="Arial" font-size="36" font-weight="400" x="0" y="0">2  </text>
		<text id="dp_text031" transform="matrix(1,0,0,1,726.842,328.629)" xml:space="preserve" fill="black" font-family="Arial" font-size="36" font-weight="400" x="0" y="0">j  </text>
		<text id="dp_text032" transform="matrix(1,0,0,1,734.874,328.629)" xml:space="preserve" fill="black" font-family="Arial" font-size="36" font-weight="400" x="0" y="0">   </text>
		<text id="dp_text033" transform="matrix(1,0,0,1,674.671,516.565)" xml:space="preserve" fill="black" font-family="Arial" font-size="53" font-weight="400" font-style="italic" x="0" y="0">B  </text>
		<text id="dp_text034" transform="matrix(1,0,0,1,706.618,532.865)" xml:space="preserve" fill="black" font-family="Arial" font-size="36" font-weight="400" x="0" y="0">3  </text>
		<text id="dp_text035" transform="matrix(1,0,0,1,726.844,532.865)" xml:space="preserve" fill="black" font-family="Arial" font-size="36" font-weight="400" x="0" y="0">j  </text>
		<text id="dp_text036" transform="matrix(1,0,0,1,734.876,532.865)" xml:space="preserve" fill="black" font-family="Arial" font-size="36" font-weight="400" x="0" y="0">   </text>
		<text id="dp_text037" transform="matrix(1,0,0,1,-29.1333,554.407)" xml:space="preserve" fill="#3be24b" stroke="black" stroke-width="0.666667" font-family="Times New Roman" font-size="19" font-weight="400" font-style="italic" x="0" y="0">   </text>
		<text id="dp_text038" transform="matrix(2.83275e-016,-1,1,2.83275e-016,706.804,706.705)" xml:space="preserve" fill="black" font-family="Arial" font-size="53" font-weight="400" x="0" y="0">...  </text>
		<text id="dp_text039" transform="matrix(2.83275e-016,-1,1,2.83275e-016,898.617,706.705)" xml:space="preserve" fill="black" font-family="Arial" font-size="53" font-weight="400" x="0" y="0">...  </text>
		<path id="dp_path051" fill="black" fill-rule="evenodd" d="M 810.843,312.085 L 810.843,300.209 L 798.967,300.209 L 798.967,298.256 L 810.843,298.256 L 810.843,286.42 L 812.796,286.42 L 812.796,298.256 L 824.713,298.256 L 824.713,300.209 L 812.796,300.209 L 812.796,312.085 Z "/>
		<path id="dp_path052" fill="black" fill-rule="evenodd" d="M 901.603,309.655 L 911.992,299.237 L 901.657,288.903 L 903.403,287.268 L 913.681,297.547 L 924.041,287.161 L 925.731,288.857 L 915.371,299.237 L 925.791,309.655 L 924.101,311.345 L 913.687,300.931 L 903.341,311.296 Z "/>
		<text id="dp_text040" transform="matrix(1,0,0,1,934.874,313.097)" xml:space="preserve" fill="black" font-family="Arial" font-size="53" font-weight="400" font-style="italic" x="0" y="0">B  </text>
		<text id="dp_text041" transform="matrix(1,0,0,1,968.341,329.397)" xml:space="preserve" fill="black" font-family="Arial" font-size="36" font-weight="400" x="0" y="0">2  </text>
		<text id="dp_text042" transform="matrix(1,0,0,1,988.567,329.397)" xml:space="preserve" fill="black" font-family="Arial" font-size="36" font-weight="400" x="0" y="0">j  </text>
		<text id="dp_text043" transform="matrix(1,0,0,1,996.597,329.397)" xml:space="preserve" fill="black" font-family="Arial" font-size="36" font-weight="400" x="0" y="0">   </text>
		<text id="dp_text044" transform="matrix(1,0,0,1,829.797,313.097)" xml:space="preserve" fill="black" font-family="Arial" font-size="53" font-weight="400" font-style="italic" x="0" y="0">A </text>
		<text id="dp_text045" transform="matrix(1,0,0,1,863.423,313.097)" xml:space="preserve" fill="black" font-family="Arial" font-size="53" font-weight="400" font-style="italic" x="0" y="0">   </text>
		<text id="dp_text046" transform="matrix(1,0,0,1,864.264,329.397)" xml:space="preserve" fill="black" font-family="Arial" font-size="36" font-weight="400" x="0" y="0">i  </text>
		<text id="dp_text047" transform="matrix(1,0,0,1,872.296,329.397)" xml:space="preserve" fill="black" font-family="Arial" font-size="36" font-weight="400" x="0" y="0">2  </text>
		<text id="dp_text048" transform="matrix(1,0,0,1,892.522,329.397)" xml:space="preserve" fill="black" font-family="Arial" font-size="36" font-weight="400" x="0" y="0">   </text>
		<path id="dp_path052" fill="black" fill-rule="evenodd" d="M 901.603,122.655 L 911.992,112.237 L 901.657,101.903 L 903.403,100.268 L 913.681,110.547 L 924.041,100.161 L 925.731,101.857 L 915.371,112.237 L 925.791,122.655 L 924.101,124.345 L 913.687,113.931 L 903.341,124.296 Z "/>
		<text id="dp_text049" transform="matrix(1,0,0,1,934.874,126.097)" xml:space="preserve" fill="black" font-family="Arial" font-size="53" font-weight="400" font-style="italic" x="0" y="0">B  </text>
		<text id="dp_text050" transform="matrix(1,0,0,1,968.341,142.397)" xml:space="preserve" fill="black" font-family="Arial" font-size="36" font-weight="400" x="0" y="0">1  </text>
		<text id="dp_text051" transform="matrix(1,0,0,1,988.567,142.397)" xml:space="preserve" fill="black" font-family="Arial" font-size="36" font-weight="400" x="0" y="0">j  </text>
		<text id="dp_text052" transform="matrix(1,0,0,1,996.597,142.397)" xml:space="preserve" fill="black" font-family="Arial" font-size="36" font-weight="400" x="0" y="0">   </text>
		<text id="dp_text053" transform="matrix(1,0,0,1,829.797,126.097)" xml:space="preserve" fill="black" font-family="Arial" font-size="53" font-weight="400" font-style="italic" x="0" y="0">A </text>
		<text id="dp_text054" transform="matrix(1,0,0,1,863.423,126.097)" xml:space="preserve" fill="black" font-family="Arial" font-size="53" font-weight="400" font-style="italic" x="0" y="0">   </text>
		<text id="dp_text055" transform="matrix(1,0,0,1,864.264,142.397)" xml:space="preserve" fill="black" font-family="Arial" font-size="36" font-weight="400" x="0" y="0">i  </text>
		<text id="dp_text056" transform="matrix(1,0,0,1,872.296,142.397)" xml:space="preserve" fill="black" font-family="Arial" font-size="36" font-weight="400" x="0" y="0">1  </text>
		<text id="dp_text057" transform="matrix(1,0,0,1,892.522,142.397)" xml:space="preserve" fill="black" font-family="Arial" font-size="36" font-weight="400" x="0" y="0">   </text>
	</g>
</svg>